<svg xmlns="http://www.w3.org/2000/svg" width="211" height="36">
    <text font-family="Nunito" fill="#6D6E70" font-size="31.2" x="43" y="34.062">CROWDME</text>
    <path fill-rule="evenodd" fill="#8FC63D" d="M3.499 15.999a3.5 3.5 0 0 1 3.5 3.5v13a3.5 3.5 0 1 1-6.999 0v-13a3.5 3.5 0 0 1 3.499-3.5zM16.499 0a3.5 3.5 0 0 1 3.5 3.499v29a3.5 3.5 0 1 1-7 0v-29A3.5 3.5 0 0 1 16.499 0zM3.499 6.999a3.5 3.5 0 1 1 0 7 3.5 3.5 0 0 1 0-7zM29.499 6.999a3.5 3.5 0 0 1 3.5 3.5v22a3.5 3.5 0 1 1-7 0v-22a3.5 3.5 0 0 1 3.5-3.5z"/>
</svg>
