<svg xmlns="http://www.w3.org/2000/svg" width="58" height="58">
    <path fill-rule="evenodd" fill="#ADD136" d="M57.33 17.396c-.831 0-.67-.431-.67-.964V3.451l-11.375 10.78a25.545 25.545 0 0 1 2.302 2.906l.018-.019c.149.216.281.445.685.666.35.056.7.11-.157.165a25.946 25.946 0 0 1 4.063 13.943c0 14.419-11.684 26.106-25.216 26.106C11.684 57.998 0 46.311 0 31.892 0 17.475 11.684 5.789 26.98 5.789c4.582 0 9.65 1.686 13.842 4.556l-1.38 1.38C35.622 9.198 31.4 7.719 26.98 7.719c-14.266 0-25.046 10.785-25.046 24.173 0 .348.037.687.051 1.032C6.48 28.862 14.11 20.898 14.11 20.898c.278-.377.89-.377 1.268 0L25.631 31.15l29.22-29.219H41.566c-.246 0-.967-.434-.967-.967 0-.534.721-.864.967-.864H57.33c.236 0 .669.33.669.864v15.468c0 .533-.433.964-.669.964z"/>
</svg>
